<svg xmlns="http://www.w3.org/2000/svg" xmlns:xlink="http://www.w3.org/1999/xlink" width="500" zoomAndPan="magnify" viewBox="0 0 375 374.999991" height="500" preserveAspectRatio="xMidYMid meet" version="1.0"><defs><g/><clipPath id="eddc813ed0"><path d="M 138.9375 67.507812 L 204.9375 67.507812 L 204.9375 133.507812 L 138.9375 133.507812 Z M 138.9375 67.507812 " clip-rule="nonzero"/></clipPath></defs><g clip-path="url(#eddc813ed0)"><path fill="#004aad" d="M 171.800781 67.507812 C 153.667969 67.507812 138.9375 82.242188 138.9375 100.375 C 138.9375 118.507812 153.667969 133.238281 171.800781 133.238281 C 189.933594 133.238281 204.667969 118.507812 204.667969 100.375 C 204.667969 82.242188 189.933594 67.507812 171.800781 67.507812 Z M 171.800781 68.9375 C 189.183594 68.9375 203.238281 82.996094 203.238281 100.375 C 203.238281 117.753906 189.183594 131.8125 171.800781 131.8125 C 154.421875 131.8125 140.367188 117.753906 140.367188 100.375 C 140.367188 82.996094 154.421875 68.9375 171.800781 68.9375 Z M 171.800781 68.9375 " fill-opacity="1" fill-rule="nonzero"/></g><g fill="#ff00ff" fill-opacity="1"><g transform="translate(146.24232, 114.252429)"><g><path d="M 0 0 C -0.25 0 -0.398438 -0.03125 -0.453125 -0.09375 C -0.503906 -0.15625 -0.53125 -0.25 -0.53125 -0.375 C -0.53125 -0.5 -0.351562 -0.734375 0 -1.078125 C 0.351562 -1.429688 0.75 -1.789062 1.1875 -2.15625 C 1.625 -2.519531 1.941406 -2.773438 2.140625 -2.921875 C 2.640625 -3.347656 3.082031 -3.875 3.46875 -4.5 C 3.851562 -5.125 4.207031 -5.707031 4.53125 -6.25 C 5.507812 -7.957031 6.34375 -9.546875 7.03125 -11.015625 C 7.71875 -12.484375 8.394531 -13.945312 9.0625 -15.40625 L 6 -15.40625 L 6 -16 L 9.359375 -16 C 9.785156 -16.925781 10.242188 -17.867188 10.734375 -18.828125 C 11.222656 -19.785156 11.78125 -20.800781 12.40625 -21.875 C 12.90625 -22.75 13.4375 -23.503906 14 -24.140625 C 14.5625 -24.785156 15.378906 -25.332031 16.453125 -25.78125 L 18.578125 -26.671875 L 9.328125 -26.671875 C 8.679688 -26.671875 8.179688 -26.546875 7.828125 -26.296875 C 7.484375 -26.046875 7.097656 -25.671875 6.671875 -25.171875 L 6.328125 -25.359375 C 7.003906 -26.316406 7.566406 -27.128906 8.015625 -27.796875 C 8.460938 -28.472656 8.910156 -29.007812 9.359375 -29.40625 C 9.640625 -29.632812 9.953125 -29.785156 10.296875 -29.859375 C 10.648438 -29.929688 10.960938 -29.96875 11.234375 -29.96875 L 31.59375 -29.96875 C 32.332031 -29.96875 32.863281 -29.851562 33.1875 -29.625 C 33.519531 -29.40625 33.6875 -29.082031 33.6875 -28.65625 C 33.707031 -27.957031 33.304688 -27.171875 32.484375 -26.296875 C 31.660156 -25.421875 30.535156 -24.445312 29.109375 -23.375 L 28.8125 -23.828125 C 29.382812 -24.222656 29.84375 -24.601562 30.1875 -24.96875 C 30.539062 -25.332031 30.71875 -25.648438 30.71875 -25.921875 C 30.71875 -26.296875 30.539062 -26.515625 30.1875 -26.578125 C 29.84375 -26.640625 29.347656 -26.671875 28.703125 -26.671875 L 19.671875 -26.671875 C 18.972656 -26.171875 18.414062 -25.609375 18 -24.984375 C 17.59375 -24.367188 17.175781 -23.707031 16.75 -23 C 16 -21.707031 15.347656 -20.488281 14.796875 -19.34375 C 14.242188 -18.207031 13.71875 -17.09375 13.21875 -16 L 25.515625 -16 L 25.515625 -15.40625 L 12.921875 -15.40625 C 12.398438 -14.195312 11.84375 -12.972656 11.25 -11.734375 C 10.664062 -10.503906 9.976562 -9.175781 9.1875 -7.75 C 8.707031 -6.90625 8.1875 -6.195312 7.625 -5.625 C 7.0625 -5.050781 6.34375 -4.523438 5.46875 -4.046875 L 4.046875 -3.296875 L 21.171875 -3.296875 C 21.816406 -3.296875 22.3125 -3.421875 22.65625 -3.671875 C 23.007812 -3.921875 23.398438 -4.296875 23.828125 -4.796875 L 24.171875 -4.609375 C 23.492188 -3.679688 22.929688 -2.875 22.484375 -2.1875 C 22.035156 -1.5 21.582031 -0.957031 21.125 -0.5625 C 20.851562 -0.332031 20.539062 -0.179688 20.1875 -0.109375 C 19.84375 -0.0351562 19.535156 0 19.265625 0 Z M 0 0 "/></g></g></g><g fill="#ff00ff" fill-opacity="1"><g transform="translate(169.911321, 114.252429)"><g><path d="M -0.078125 0 C -0.253906 0 -0.363281 -0.0351562 -0.40625 -0.109375 C -0.457031 -0.179688 -0.484375 -0.257812 -0.484375 -0.34375 C -0.484375 -0.46875 -0.3125 -0.703125 0.03125 -1.046875 C 0.382812 -1.398438 0.78125 -1.765625 1.21875 -2.140625 C 1.65625 -2.515625 1.972656 -2.773438 2.171875 -2.921875 C 2.671875 -3.421875 3.113281 -3.957031 3.5 -4.53125 C 3.882812 -5.101562 4.242188 -5.675781 4.578125 -6.25 C 5.671875 -8.175781 6.601562 -10.050781 7.375 -11.875 C 8.15625 -13.695312 8.929688 -15.519531 9.703125 -17.34375 C 10.472656 -19.164062 11.410156 -21.039062 12.515625 -22.96875 C 13.015625 -23.84375 13.546875 -24.59375 14.109375 -25.21875 C 14.671875 -25.84375 15.488281 -26.390625 16.5625 -26.859375 L 16.640625 -26.90625 L 10.640625 -26.90625 C 9.992188 -26.90625 9.492188 -26.78125 9.140625 -26.53125 C 8.796875 -26.28125 8.410156 -25.90625 7.984375 -25.40625 L 7.640625 -25.59375 C 8.316406 -26.539062 8.878906 -27.3125 9.328125 -27.90625 C 9.773438 -28.507812 10.222656 -29.007812 10.671875 -29.40625 C 10.953125 -29.632812 11.265625 -29.785156 11.609375 -29.859375 C 11.960938 -29.929688 12.273438 -29.96875 12.546875 -29.96875 L 22.328125 -29.96875 C 24.597656 -29.96875 26.382812 -29.6875 27.6875 -29.125 C 28.988281 -28.5625 29.921875 -27.851562 30.484375 -27 C 31.046875 -26.15625 31.328125 -25.296875 31.328125 -24.421875 C 31.328125 -22.972656 30.898438 -21.5625 30.046875 -20.1875 C 29.203125 -18.820312 27.941406 -17.679688 26.265625 -16.765625 C 24.585938 -15.859375 22.523438 -15.363281 20.078125 -15.28125 C 20.929688 -10.914062 21.769531 -7.582031 22.59375 -5.28125 C 23.414062 -2.988281 24.265625 -1.84375 25.140625 -1.84375 C 25.941406 -1.84375 26.941406 -2.460938 28.140625 -3.703125 L 28.46875 -3.375 C 27.175781 -2.070312 26.070312 -1.132812 25.15625 -0.5625 C 24.25 0.0078125 23.53125 0.296875 23 0.296875 C 22 0.296875 21.144531 -0.191406 20.4375 -1.171875 C 19.726562 -2.160156 19.0625 -3.789062 18.4375 -6.0625 C 17.8125 -8.34375 17.148438 -11.414062 16.453125 -15.28125 L 12.734375 -15.28125 C 12.234375 -14.0625 11.707031 -12.828125 11.15625 -11.578125 C 10.613281 -10.328125 9.96875 -9.050781 9.21875 -7.75 C 8.738281 -6.90625 8.21875 -6.195312 7.65625 -5.625 C 7.09375 -5.050781 6.378906 -4.523438 5.515625 -4.046875 L 3.671875 -3.109375 L 9.328125 -3.375 C 9.523438 -3.375 9.640625 -3.351562 9.671875 -3.3125 C 9.710938 -3.28125 9.734375 -3.222656 9.734375 -3.140625 C 9.734375 -3.046875 9.617188 -2.789062 9.390625 -2.375 C 9.171875 -1.96875 8.910156 -1.550781 8.609375 -1.125 C 8.316406 -0.695312 8.070312 -0.410156 7.875 -0.265625 C 7.75 -0.160156 7.59375 -0.0859375 7.40625 -0.046875 C 7.21875 -0.015625 7.007812 0 6.78125 0 Z M 13 -15.890625 L 20.015625 -15.890625 C 21.585938 -15.890625 22.882812 -16.09375 23.90625 -16.5 C 24.925781 -16.914062 25.71875 -17.457031 26.28125 -18.125 C 26.84375 -18.800781 27.226562 -19.53125 27.4375 -20.3125 C 27.65625 -21.101562 27.765625 -21.875 27.765625 -22.625 C 27.765625 -23.78125 27.429688 -24.660156 26.765625 -25.265625 C 26.109375 -25.878906 25.222656 -26.304688 24.109375 -26.546875 C 22.992188 -26.785156 21.738281 -26.90625 20.34375 -26.90625 L 18.8125 -26.90625 C 18.40625 -26.5 18.050781 -26.050781 17.75 -25.5625 C 17.457031 -25.082031 17.160156 -24.59375 16.859375 -24.09375 C 16.035156 -22.664062 15.320312 -21.273438 14.71875 -19.921875 C 14.125 -18.578125 13.550781 -17.234375 13 -15.890625 Z M 13 -15.890625 "/></g></g></g><g fill="#00ffff" fill-opacity="1"><g transform="translate(144.837358, 114.252429)"><g><path d="M 0 0 C -0.25 0 -0.398438 -0.03125 -0.453125 -0.09375 C -0.503906 -0.15625 -0.53125 -0.25 -0.53125 -0.375 C -0.53125 -0.5 -0.351562 -0.734375 0 -1.078125 C 0.351562 -1.429688 0.75 -1.789062 1.1875 -2.15625 C 1.625 -2.519531 1.941406 -2.773438 2.140625 -2.921875 C 2.640625 -3.347656 3.082031 -3.875 3.46875 -4.5 C 3.851562 -5.125 4.207031 -5.707031 4.53125 -6.25 C 5.507812 -7.957031 6.34375 -9.546875 7.03125 -11.015625 C 7.71875 -12.484375 8.394531 -13.945312 9.0625 -15.40625 L 6 -15.40625 L 6 -16 L 9.359375 -16 C 9.785156 -16.925781 10.242188 -17.867188 10.734375 -18.828125 C 11.222656 -19.785156 11.78125 -20.800781 12.40625 -21.875 C 12.90625 -22.75 13.4375 -23.503906 14 -24.140625 C 14.5625 -24.785156 15.378906 -25.332031 16.453125 -25.78125 L 18.578125 -26.671875 L 9.328125 -26.671875 C 8.679688 -26.671875 8.179688 -26.546875 7.828125 -26.296875 C 7.484375 -26.046875 7.097656 -25.671875 6.671875 -25.171875 L 6.328125 -25.359375 C 7.003906 -26.316406 7.566406 -27.128906 8.015625 -27.796875 C 8.460938 -28.472656 8.910156 -29.007812 9.359375 -29.40625 C 9.640625 -29.632812 9.953125 -29.785156 10.296875 -29.859375 C 10.648438 -29.929688 10.960938 -29.96875 11.234375 -29.96875 L 31.59375 -29.96875 C 32.332031 -29.96875 32.863281 -29.851562 33.1875 -29.625 C 33.519531 -29.40625 33.6875 -29.082031 33.6875 -28.65625 C 33.707031 -27.957031 33.304688 -27.171875 32.484375 -26.296875 C 31.660156 -25.421875 30.535156 -24.445312 29.109375 -23.375 L 28.8125 -23.828125 C 29.382812 -24.222656 29.84375 -24.601562 30.1875 -24.96875 C 30.539062 -25.332031 30.71875 -25.648438 30.71875 -25.921875 C 30.71875 -26.296875 30.539062 -26.515625 30.1875 -26.578125 C 29.84375 -26.640625 29.347656 -26.671875 28.703125 -26.671875 L 19.671875 -26.671875 C 18.972656 -26.171875 18.414062 -25.609375 18 -24.984375 C 17.59375 -24.367188 17.175781 -23.707031 16.75 -23 C 16 -21.707031 15.347656 -20.488281 14.796875 -19.34375 C 14.242188 -18.207031 13.71875 -17.09375 13.21875 -16 L 25.515625 -16 L 25.515625 -15.40625 L 12.921875 -15.40625 C 12.398438 -14.195312 11.84375 -12.972656 11.25 -11.734375 C 10.664062 -10.503906 9.976562 -9.175781 9.1875 -7.75 C 8.707031 -6.90625 8.1875 -6.195312 7.625 -5.625 C 7.0625 -5.050781 6.34375 -4.523438 5.46875 -4.046875 L 4.046875 -3.296875 L 21.171875 -3.296875 C 21.816406 -3.296875 22.3125 -3.421875 22.65625 -3.671875 C 23.007812 -3.921875 23.398438 -4.296875 23.828125 -4.796875 L 24.171875 -4.609375 C 23.492188 -3.679688 22.929688 -2.875 22.484375 -2.1875 C 22.035156 -1.5 21.582031 -0.957031 21.125 -0.5625 C 20.851562 -0.332031 20.539062 -0.179688 20.1875 -0.109375 C 19.84375 -0.0351562 19.535156 0 19.265625 0 Z M 0 0 "/></g></g></g><g fill="#00ffff" fill-opacity="1"><g transform="translate(168.506359, 114.252429)"><g><path d="M -0.078125 0 C -0.253906 0 -0.363281 -0.0351562 -0.40625 -0.109375 C -0.457031 -0.179688 -0.484375 -0.257812 -0.484375 -0.34375 C -0.484375 -0.46875 -0.3125 -0.703125 0.03125 -1.046875 C 0.382812 -1.398438 0.78125 -1.765625 1.21875 -2.140625 C 1.65625 -2.515625 1.972656 -2.773438 2.171875 -2.921875 C 2.671875 -3.421875 3.113281 -3.957031 3.5 -4.53125 C 3.882812 -5.101562 4.242188 -5.675781 4.578125 -6.25 C 5.671875 -8.175781 6.601562 -10.050781 7.375 -11.875 C 8.15625 -13.695312 8.929688 -15.519531 9.703125 -17.34375 C 10.472656 -19.164062 11.410156 -21.039062 12.515625 -22.96875 C 13.015625 -23.84375 13.546875 -24.59375 14.109375 -25.21875 C 14.671875 -25.84375 15.488281 -26.390625 16.5625 -26.859375 L 16.640625 -26.90625 L 10.640625 -26.90625 C 9.992188 -26.90625 9.492188 -26.78125 9.140625 -26.53125 C 8.796875 -26.28125 8.410156 -25.90625 7.984375 -25.40625 L 7.640625 -25.59375 C 8.316406 -26.539062 8.878906 -27.3125 9.328125 -27.90625 C 9.773438 -28.507812 10.222656 -29.007812 10.671875 -29.40625 C 10.953125 -29.632812 11.265625 -29.785156 11.609375 -29.859375 C 11.960938 -29.929688 12.273438 -29.96875 12.546875 -29.96875 L 22.328125 -29.96875 C 24.597656 -29.96875 26.382812 -29.6875 27.6875 -29.125 C 28.988281 -28.5625 29.921875 -27.851562 30.484375 -27 C 31.046875 -26.15625 31.328125 -25.296875 31.328125 -24.421875 C 31.328125 -22.972656 30.898438 -21.5625 30.046875 -20.1875 C 29.203125 -18.820312 27.941406 -17.679688 26.265625 -16.765625 C 24.585938 -15.859375 22.523438 -15.363281 20.078125 -15.28125 C 20.929688 -10.914062 21.769531 -7.582031 22.59375 -5.28125 C 23.414062 -2.988281 24.265625 -1.84375 25.140625 -1.84375 C 25.941406 -1.84375 26.941406 -2.460938 28.140625 -3.703125 L 28.46875 -3.375 C 27.175781 -2.070312 26.070312 -1.132812 25.15625 -0.5625 C 24.25 0.0078125 23.53125 0.296875 23 0.296875 C 22 0.296875 21.144531 -0.191406 20.4375 -1.171875 C 19.726562 -2.160156 19.0625 -3.789062 18.4375 -6.0625 C 17.8125 -8.34375 17.148438 -11.414062 16.453125 -15.28125 L 12.734375 -15.28125 C 12.234375 -14.0625 11.707031 -12.828125 11.15625 -11.578125 C 10.613281 -10.328125 9.96875 -9.050781 9.21875 -7.75 C 8.738281 -6.90625 8.21875 -6.195312 7.65625 -5.625 C 7.09375 -5.050781 6.378906 -4.523438 5.515625 -4.046875 L 3.671875 -3.109375 L 9.328125 -3.375 C 9.523438 -3.375 9.640625 -3.351562 9.671875 -3.3125 C 9.710938 -3.28125 9.734375 -3.222656 9.734375 -3.140625 C 9.734375 -3.046875 9.617188 -2.789062 9.390625 -2.375 C 9.171875 -1.96875 8.910156 -1.550781 8.609375 -1.125 C 8.316406 -0.695312 8.070312 -0.410156 7.875 -0.265625 C 7.75 -0.160156 7.59375 -0.0859375 7.40625 -0.046875 C 7.21875 -0.015625 7.007812 0 6.78125 0 Z M 13 -15.890625 L 20.015625 -15.890625 C 21.585938 -15.890625 22.882812 -16.09375 23.90625 -16.5 C 24.925781 -16.914062 25.71875 -17.457031 26.28125 -18.125 C 26.84375 -18.800781 27.226562 -19.53125 27.4375 -20.3125 C 27.65625 -21.101562 27.765625 -21.875 27.765625 -22.625 C 27.765625 -23.78125 27.429688 -24.660156 26.765625 -25.265625 C 26.109375 -25.878906 25.222656 -26.304688 24.109375 -26.546875 C 22.992188 -26.785156 21.738281 -26.90625 20.34375 -26.90625 L 18.8125 -26.90625 C 18.40625 -26.5 18.050781 -26.050781 17.75 -25.5625 C 17.457031 -25.082031 17.160156 -24.59375 16.859375 -24.09375 C 16.035156 -22.664062 15.320312 -21.273438 14.71875 -19.921875 C 14.125 -18.578125 13.550781 -17.234375 13 -15.890625 Z M 13 -15.890625 "/></g></g></g><g fill="#38b6ff" fill-opacity="1"><g transform="translate(145.539838, 114.252429)"><g><path d="M 0 0 C -0.25 0 -0.398438 -0.03125 -0.453125 -0.09375 C -0.503906 -0.15625 -0.53125 -0.25 -0.53125 -0.375 C -0.53125 -0.5 -0.351562 -0.734375 0 -1.078125 C 0.351562 -1.429688 0.75 -1.789062 1.1875 -2.15625 C 1.625 -2.519531 1.941406 -2.773438 2.140625 -2.921875 C 2.640625 -3.347656 3.082031 -3.875 3.46875 -4.5 C 3.851562 -5.125 4.207031 -5.707031 4.53125 -6.25 C 5.507812 -7.957031 6.34375 -9.546875 7.03125 -11.015625 C 7.71875 -12.484375 8.394531 -13.945312 9.0625 -15.40625 L 6 -15.40625 L 6 -16 L 9.359375 -16 C 9.785156 -16.925781 10.242188 -17.867188 10.734375 -18.828125 C 11.222656 -19.785156 11.78125 -20.800781 12.40625 -21.875 C 12.90625 -22.75 13.4375 -23.503906 14 -24.140625 C 14.5625 -24.785156 15.378906 -25.332031 16.453125 -25.78125 L 18.578125 -26.671875 L 9.328125 -26.671875 C 8.679688 -26.671875 8.179688 -26.546875 7.828125 -26.296875 C 7.484375 -26.046875 7.097656 -25.671875 6.671875 -25.171875 L 6.328125 -25.359375 C 7.003906 -26.316406 7.566406 -27.128906 8.015625 -27.796875 C 8.460938 -28.472656 8.910156 -29.007812 9.359375 -29.40625 C 9.640625 -29.632812 9.953125 -29.785156 10.296875 -29.859375 C 10.648438 -29.929688 10.960938 -29.96875 11.234375 -29.96875 L 31.59375 -29.96875 C 32.332031 -29.96875 32.863281 -29.851562 33.1875 -29.625 C 33.519531 -29.40625 33.6875 -29.082031 33.6875 -28.65625 C 33.707031 -27.957031 33.304688 -27.171875 32.484375 -26.296875 C 31.660156 -25.421875 30.535156 -24.445312 29.109375 -23.375 L 28.8125 -23.828125 C 29.382812 -24.222656 29.84375 -24.601562 30.1875 -24.96875 C 30.539062 -25.332031 30.71875 -25.648438 30.71875 -25.921875 C 30.71875 -26.296875 30.539062 -26.515625 30.1875 -26.578125 C 29.84375 -26.640625 29.347656 -26.671875 28.703125 -26.671875 L 19.671875 -26.671875 C 18.972656 -26.171875 18.414062 -25.609375 18 -24.984375 C 17.59375 -24.367188 17.175781 -23.707031 16.75 -23 C 16 -21.707031 15.347656 -20.488281 14.796875 -19.34375 C 14.242188 -18.207031 13.71875 -17.09375 13.21875 -16 L 25.515625 -16 L 25.515625 -15.40625 L 12.921875 -15.40625 C 12.398438 -14.195312 11.84375 -12.972656 11.25 -11.734375 C 10.664062 -10.503906 9.976562 -9.175781 9.1875 -7.75 C 8.707031 -6.90625 8.1875 -6.195312 7.625 -5.625 C 7.0625 -5.050781 6.34375 -4.523438 5.46875 -4.046875 L 4.046875 -3.296875 L 21.171875 -3.296875 C 21.816406 -3.296875 22.3125 -3.421875 22.65625 -3.671875 C 23.007812 -3.921875 23.398438 -4.296875 23.828125 -4.796875 L 24.171875 -4.609375 C 23.492188 -3.679688 22.929688 -2.875 22.484375 -2.1875 C 22.035156 -1.5 21.582031 -0.957031 21.125 -0.5625 C 20.851562 -0.332031 20.539062 -0.179688 20.1875 -0.109375 C 19.84375 -0.0351562 19.535156 0 19.265625 0 Z M 0 0 "/></g></g></g><g fill="#38b6ff" fill-opacity="1"><g transform="translate(169.208839, 114.252429)"><g><path d="M -0.078125 0 C -0.253906 0 -0.363281 -0.0351562 -0.40625 -0.109375 C -0.457031 -0.179688 -0.484375 -0.257812 -0.484375 -0.34375 C -0.484375 -0.46875 -0.3125 -0.703125 0.03125 -1.046875 C 0.382812 -1.398438 0.78125 -1.765625 1.21875 -2.140625 C 1.65625 -2.515625 1.972656 -2.773438 2.171875 -2.921875 C 2.671875 -3.421875 3.113281 -3.957031 3.5 -4.53125 C 3.882812 -5.101562 4.242188 -5.675781 4.578125 -6.25 C 5.671875 -8.175781 6.601562 -10.050781 7.375 -11.875 C 8.15625 -13.695312 8.929688 -15.519531 9.703125 -17.34375 C 10.472656 -19.164062 11.410156 -21.039062 12.515625 -22.96875 C 13.015625 -23.84375 13.546875 -24.59375 14.109375 -25.21875 C 14.671875 -25.84375 15.488281 -26.390625 16.5625 -26.859375 L 16.640625 -26.90625 L 10.640625 -26.90625 C 9.992188 -26.90625 9.492188 -26.78125 9.140625 -26.53125 C 8.796875 -26.28125 8.410156 -25.90625 7.984375 -25.40625 L 7.640625 -25.59375 C 8.316406 -26.539062 8.878906 -27.3125 9.328125 -27.90625 C 9.773438 -28.507812 10.222656 -29.007812 10.671875 -29.40625 C 10.953125 -29.632812 11.265625 -29.785156 11.609375 -29.859375 C 11.960938 -29.929688 12.273438 -29.96875 12.546875 -29.96875 L 22.328125 -29.96875 C 24.597656 -29.96875 26.382812 -29.6875 27.6875 -29.125 C 28.988281 -28.5625 29.921875 -27.851562 30.484375 -27 C 31.046875 -26.15625 31.328125 -25.296875 31.328125 -24.421875 C 31.328125 -22.972656 30.898438 -21.5625 30.046875 -20.1875 C 29.203125 -18.820312 27.941406 -17.679688 26.265625 -16.765625 C 24.585938 -15.859375 22.523438 -15.363281 20.078125 -15.28125 C 20.929688 -10.914062 21.769531 -7.582031 22.59375 -5.28125 C 23.414062 -2.988281 24.265625 -1.84375 25.140625 -1.84375 C 25.941406 -1.84375 26.941406 -2.460938 28.140625 -3.703125 L 28.46875 -3.375 C 27.175781 -2.070312 26.070312 -1.132812 25.15625 -0.5625 C 24.25 0.0078125 23.53125 0.296875 23 0.296875 C 22 0.296875 21.144531 -0.191406 20.4375 -1.171875 C 19.726562 -2.160156 19.0625 -3.789062 18.4375 -6.0625 C 17.8125 -8.34375 17.148438 -11.414062 16.453125 -15.28125 L 12.734375 -15.28125 C 12.234375 -14.0625 11.707031 -12.828125 11.15625 -11.578125 C 10.613281 -10.328125 9.96875 -9.050781 9.21875 -7.75 C 8.738281 -6.90625 8.21875 -6.195312 7.65625 -5.625 C 7.09375 -5.050781 6.378906 -4.523438 5.515625 -4.046875 L 3.671875 -3.109375 L 9.328125 -3.375 C 9.523438 -3.375 9.640625 -3.351562 9.671875 -3.3125 C 9.710938 -3.28125 9.734375 -3.222656 9.734375 -3.140625 C 9.734375 -3.046875 9.617188 -2.789062 9.390625 -2.375 C 9.171875 -1.96875 8.910156 -1.550781 8.609375 -1.125 C 8.316406 -0.695312 8.070312 -0.410156 7.875 -0.265625 C 7.75 -0.160156 7.59375 -0.0859375 7.40625 -0.046875 C 7.21875 -0.015625 7.007812 0 6.78125 0 Z M 13 -15.890625 L 20.015625 -15.890625 C 21.585938 -15.890625 22.882812 -16.09375 23.90625 -16.5 C 24.925781 -16.914062 25.71875 -17.457031 26.28125 -18.125 C 26.84375 -18.800781 27.226562 -19.53125 27.4375 -20.3125 C 27.65625 -21.101562 27.765625 -21.875 27.765625 -22.625 C 27.765625 -23.78125 27.429688 -24.660156 26.765625 -25.265625 C 26.109375 -25.878906 25.222656 -26.304688 24.109375 -26.546875 C 22.992188 -26.785156 21.738281 -26.90625 20.34375 -26.90625 L 18.8125 -26.90625 C 18.40625 -26.5 18.050781 -26.050781 17.75 -25.5625 C 17.457031 -25.082031 17.160156 -24.59375 16.859375 -24.09375 C 16.035156 -22.664062 15.320312 -21.273438 14.71875 -19.921875 C 14.125 -18.578125 13.550781 -17.234375 13 -15.890625 Z M 13 -15.890625 "/></g></g></g></svg>